<svg xmlns="http://www.w3.org/2000/svg" xmlns:xlink="http://www.w3.org/1999/xlink" width="100" zoomAndPan="magnify" viewBox="0 0 75 74.999997" height="100" preserveAspectRatio="xMidYMid meet" version="1.0"><defs><g/></defs><g fill="#8c8c8c" fill-opacity="1"><g transform="translate(-2.614579, 65.249994)"><g><path d="M 4.203125 0 L 4.203125 -55.03125 L 15.515625 -55.03125 L 21.546875 -37.515625 C 21.753906 -36.960938 21.929688 -36.351562 22.078125 -35.6875 C 22.234375 -35.03125 22.363281 -34.421875 22.46875 -33.859375 C 22.625 -33.191406 22.75 -32.550781 22.84375 -31.9375 L 23.390625 -31.9375 C 23.484375 -32.550781 23.609375 -33.191406 23.765625 -33.859375 C 23.921875 -34.421875 24.070312 -35.03125 24.21875 -35.6875 C 24.375 -36.351562 24.554688 -36.960938 24.765625 -37.515625 L 30.265625 -55.03125 L 41.71875 -55.03125 L 41.71875 0 L 33.171875 0 L 33.171875 -35.6875 C 33.171875 -36.863281 33.21875 -38.085938 33.3125 -39.359375 C 33.414062 -40.628906 33.519531 -41.800781 33.625 -42.875 C 33.726562 -44.144531 33.851562 -45.394531 34 -46.625 L 33.3125 -46.625 C 33.0625 -45.445312 32.785156 -44.296875 32.484375 -43.171875 C 32.222656 -42.203125 31.960938 -41.195312 31.703125 -40.15625 C 31.453125 -39.113281 31.203125 -38.160156 30.953125 -37.296875 L 26.984375 -24.21875 L 19.03125 -24.21875 L 14.828125 -37.296875 C 14.566406 -38.160156 14.304688 -39.113281 14.046875 -40.15625 C 13.796875 -41.195312 13.546875 -42.203125 13.296875 -43.171875 C 13.046875 -44.296875 12.816406 -45.445312 12.609375 -46.625 L 11.84375 -46.625 C 12 -45.394531 12.148438 -44.144531 12.296875 -42.875 C 12.398438 -41.800781 12.488281 -40.628906 12.5625 -39.359375 C 12.644531 -38.085938 12.6875 -36.863281 12.6875 -35.6875 L 12.6875 0 Z M 4.203125 0 "/></g></g></g><g fill="#00ff99" fill-opacity="1"><g transform="translate(43.240886, 65.249994)"><g><path d="M 15.515625 -6.71875 C 15.515625 -9.019531 16.1875 -10.84375 17.53125 -12.1875 C 18.882812 -13.539062 20.679688 -14.21875 22.921875 -14.21875 C 25.210938 -14.21875 27.019531 -13.539062 28.34375 -12.1875 C 29.675781 -10.84375 30.34375 -9.019531 30.34375 -6.71875 C 30.34375 -4.476562 29.675781 -2.671875 28.34375 -1.296875 C 27.019531 0.078125 25.210938 0.765625 22.921875 0.765625 C 20.679688 0.765625 18.882812 0.078125 17.53125 -1.296875 C 16.1875 -2.671875 15.515625 -4.476562 15.515625 -6.71875 Z M 15.515625 -6.71875 "/></g></g></g></svg>